# xmcd
#
# Track frame offsets:
#	150
#	15726
#	30943
#	45565
#	61562
#	77163
#	89165
#	103648
#	117269
#	131998
#	145108
#	160635
#	175936
#	190637
#	206726
#	222753
#	234893
#	249578
#	263382
#	278292
#
# Disc length: 3883 seconds
#
# Revision: 1
# Processed by: cddbd v1.5.1PL0 Copyright (c) Steve Scherf et al.
# Submitted via: EasyCDDAExtractor 8.2.1.1
#
DISCID=000f2914
DTITLE=Jerry Burkhart - Cryin' Country
DYEAR=2003
DGENRE=Country
TTITLE0=Geronimo
TTITLE1=Cryin' Steel
TTITLE2=It Ain't Fair
TTITLE3=Dodging Memories
TTITLE4=Lonely, Sad And Blue
TTITLE5=Whoop De Do
TTITLE6=Cry Baby Cry
TTITLE7=These Things I Want
TTITLE8=Time Seems To Run Backwards
TTITLE9=There's A Light Athe End Of The Tunnel
TTITLE10=Geronimo (Karaoke)
TTITLE11=Cryin' Steel (Karaoke)
TTITLE12=It Ain't Fair (Karaoke)
TTITLE13=Dodging Memories (Karaoke)
TTITLE14=Lonely, Sad Blue (Karaoke)
TTITLE15=Whoop De Do (Karaoke)
TTITLE16=Cry Baby Cry (Karaoke)
TTITLE17=These Things I Want (Karaoke)
TTITLE18=Time Seems To Run Backwards (Karaoke)
TTITLE19=There's A Light At The End Of The Tunnel (Karaoke)
EXTD=
EXTT0=
EXTT1=
EXTT2=
EXTT3=
EXTT4=
EXTT5=
EXTT6=
EXTT7=
EXTT8=
EXTT9=
EXTT10=
EXTT11=
EXTT12=
EXTT13=
EXTT14=
EXTT15=
EXTT16=
EXTT17=
EXTT18=
EXTT19=
PLAYORDER=
